<svg xmlns="http://www.w3.org/2000/svg" width="223.084" height="74" viewBox="0 0 223.084 74"><defs><style>.a{fill:none;}.b{fill:#fff;}</style></defs><rect class="a" width="223" height="74" transform="translate(0)"/><path class="b" d="M30.245,43.512a1.508,1.508,0,0,0-1.306,2.262L39.021,63.237a1.508,1.508,0,0,0,2.612,0L51.716,45.773a1.508,1.508,0,0,0-1.306-2.262ZM40.327,66.758a4.228,4.228,0,0,1-3.7-2.137L26.543,47.156a4.273,4.273,0,0,1,3.7-6.41H50.41a4.273,4.273,0,0,1,3.7,6.411L44.028,64.62a4.23,4.23,0,0,1-3.7,2.137" transform="translate(-25.965 -14.553)"/><path class="b" d="M63.4,24.6a1.508,1.508,0,0,0-1.306,2.262L72.179,44.324a1.507,1.507,0,0,0,2.611,0L84.872,26.86A1.508,1.508,0,0,0,83.567,24.6ZM73.484,47.843a4.228,4.228,0,0,1-3.7-2.137L59.7,28.243a4.273,4.273,0,0,1,3.7-6.41H83.567a4.273,4.273,0,0,1,3.7,6.41L77.184,45.706a4.227,4.227,0,0,1-3.7,2.137" transform="translate(-44.758 -3.833)"/><path class="b" d="M164.631,56.607V47.8l-8.725-13.654c-.114-.278.609-1.667,2.476-1.667a2.246,2.246,0,0,1,1.906,1.43l6.325,10.477L172.936,33.9c.611-1.033,1.3-1.43,1.944-1.43,1.715,0,2.516,1.43,2.363,1.667L168.555,47.8v8.811c0,1.231-.571,1.865-1.714,1.865h-.534c-1.1,0-1.676-.635-1.676-1.865" transform="translate(-99.612 -9.865)"/><path class="b" d="M210.073,56.607V34.777c0-1.39.648-2.3,1.868-2.3h.648c1.18,0,1.638.516,2.361,1.549l12.193,18.018v-17.7c0-1.23.5-1.866,1.638-1.866h.458c1.066,0,1.6.636,1.6,1.866V56.17c0,1.429-.685,2.3-1.83,2.3h-.3c-1.181,0-1.486-.358-2.1-1.231L213.769,38.31v18.3c0,1.231-.532,1.865-1.676,1.865h-.419c-1.105,0-1.6-.635-1.6-1.865" transform="translate(-130.322 -9.865)"/><path class="b" d="M272.125,57l-8.839-23.216c-.153-.357,1.065-1.309,2.323-1.309A2.353,2.353,0,0,1,267.9,34.34L274.6,53.9l6.706-19.565a2.3,2.3,0,0,1,2.172-1.865c1.22,0,2.4.953,2.286,1.309L276.963,57a2.174,2.174,0,0,1-2.438,1.547,2.143,2.143,0,0,1-2.4-1.547" transform="translate(-160.477 -9.865)"/><path class="b" d="M341.248,52.891a4.053,4.053,0,0,0-4.344-4.154,4,4,0,0,0-4.229,4.154,4.289,4.289,0,0,0,8.573,0m1.486,14.478c0-1.448-1.715-1.981-3.734-2.477l-1.9-.457c-3.125.19-5.716,1.3-5.716,3.239,0,1.638,1.868,2.552,5.488,2.552,3.695,0,5.867-1.028,5.867-2.858m-14.973.419c0-2.667,2.515-4.457,5.829-5.03a2.128,2.128,0,0,1-.723-1.715,2.688,2.688,0,0,1,1.029-1.98,6.379,6.379,0,0,1-4.8-6.1c0-3.848,3.315-6.934,7.849-6.934a9.218,9.218,0,0,1,4.382,1.105l.99-1.753a2.418,2.418,0,0,1,2.171-1.447,2.059,2.059,0,0,1,1.943,1.6L343.3,48.776a6.219,6.219,0,0,1,1.6,4.077c0,3.848-3.276,6.668-7.925,6.668h-.687a1.063,1.063,0,0,0-.189.648c0,1.181,1.752,1.3,4.952,2.1,2.591.686,5.334,1.981,5.334,4.991,0,3.468-3.543,5.6-9.6,5.6-6.173,0-9.029-1.638-9.029-5.067" transform="translate(-197.031 -16.362)"/><path class="b" d="M385.161,51.212a1.874,1.874,0,0,1-1.144,1.943,3.553,3.553,0,0,0-2.324-.8c-2.972,0-4.153,2.9-4.153,7.126v6.44c0,1.371-.724,1.791-1.676,1.791h-.419c-.99,0-1.677-.42-1.677-1.791V49.459a1.874,1.874,0,0,1,1.371-.419,2.157,2.157,0,0,1,2.21,1.829,6.864,6.864,0,0,1,.152,1.371,4.641,4.641,0,0,1,4.649-3.467c1.905,0,3.01.914,3.01,2.439" transform="translate(-223.11 -19.104)"/><path class="b" d="M410.236,51.859c-3.506,0-6.135,2.744-6.135,6.516s2.629,6.591,6.135,6.591,6.1-2.781,6.1-6.515c0-3.81-2.552-6.592-6.1-6.592m.037-3.086a9.255,9.255,0,0,1,9.564,9.678,9.223,9.223,0,0,1-9.6,9.6c-5.678,0-9.6-4-9.6-9.677a9.233,9.233,0,0,1,9.639-9.6" transform="translate(-238.337 -19.104)"/><path class="b" d="M467.284,51.218V67.639a1.832,1.832,0,0,1-1.334.419,2.134,2.134,0,0,1-2.249-1.715,5.3,5.3,0,0,1-.151-1.181,7.119,7.119,0,0,1-6.1,3.2c-4.838,0-7.048-3.276-7.048-7.848v-9.3c0-1.371.686-1.83,1.637-1.83h.42c.99,0,1.676.42,1.676,1.83v8.839c0,3.163,1.6,5.03,4.382,5.03a5.507,5.507,0,0,0,5.03-3.239V51.218c0-1.371.685-1.83,1.638-1.83h.42c.99,0,1.676.42,1.676,1.83" transform="translate(-266.549 -19.452)"/><path class="b" d="M512.778,58.413c0-3.809-2.362-6.515-5.639-6.515a5.846,5.846,0,0,0-5.714,3.81v3.848a5.475,5.475,0,0,0,5.639,5.372c3.429,0,5.715-2.628,5.715-6.515m3.658-.037c0,5.753-3.62,9.677-8.687,9.677a7.073,7.073,0,0,1-6.287-3.429v8.611c0,1.371-.725,1.79-1.676,1.79h-.42c-.99,0-1.676-.419-1.676-1.79V49.46a1.87,1.87,0,0,1,1.371-.42,2.187,2.187,0,0,1,2.249,2.1,6.587,6.587,0,0,1,.114,1.067,7.3,7.3,0,0,1,6.439-3.43c4.914,0,8.572,3.772,8.572,9.6" transform="translate(-293.352 -19.104)"/></svg>