<svg xmlns="http://www.w3.org/2000/svg" width="139" height="74" viewBox="0 0 139 74"><defs><style>.a{fill:#fff;}.b{fill:none;}</style></defs><g transform="translate(0 27)"><path class="a" d="M272.537,20.944a12.594,12.594,0,0,0-17.76,0,12.445,12.445,0,0,0-.531,17.116l.124.109a5.932,5.932,0,0,1-2.583,2.911.486.486,0,0,0,.14.911,7.13,7.13,0,0,0,5.336-1.451l.024.024a12.6,12.6,0,0,0,15.24-1.949,12.445,12.445,0,0,0,.009-17.672Zm-7.1,18.33H261.85V25.709h3.591Zm.422-16.351a2.254,2.254,0,0,1-.516.728,2.519,2.519,0,0,1-.762.495,2.446,2.446,0,0,1-2.626-.495,2.328,2.328,0,0,1-.507-.728,2.192,2.192,0,0,1,0-1.791,2.318,2.318,0,0,1,.507-.735,2.449,2.449,0,0,1,.759-.495,2.456,2.456,0,0,1,2.629.495,2.249,2.249,0,0,1,.516.735A2.192,2.192,0,0,1,265.863,22.923Z" transform="translate(-174.878 -12.034)"/><path class="a" d="M3.962,37v9.252H0V37a8.924,8.924,0,0,1,2.711-6.544,8.909,8.909,0,0,1,6.541-2.708,8.918,8.918,0,0,1,6.532,2.708c.264.267.507.534.728.807a10.36,10.36,0,0,1,.725-.807,8.918,8.918,0,0,1,6.544-2.708A9.249,9.249,0,0,1,33.031,37v9.252H29.079V37a5.283,5.283,0,1,0-10.566,0v9.252H14.537V37a5.084,5.084,0,0,0-1.545-3.74,5.1,5.1,0,0,0-3.743-1.548,5.093,5.093,0,0,0-3.74,1.548A5.087,5.087,0,0,0,3.962,37Z" transform="translate(0.004 -19.323)"/><path class="a" d="M132.6,30.456a9.255,9.255,0,0,1,0,13.088,9.258,9.258,0,0,1-13.085,0,9.255,9.255,0,0,1,0-13.088,9.258,9.258,0,0,1,13.085,0Zm-6.541,1.257a5.286,5.286,0,1,0,3.74,1.548A5.093,5.093,0,0,0,126.062,31.713Z" transform="translate(-81.351 -19.325)"/><path class="a" d="M188.685,37v9.252h-3.967V37a8.924,8.924,0,0,1,2.711-6.544,9.258,9.258,0,0,1,13.085,0A8.924,8.924,0,0,1,203.224,37v9.252H199.26V37a5.288,5.288,0,1,0-10.575,0Z" transform="translate(-128.648 -19.325)"/><path class="a" d="M343.3,13.216V26.924h-3.964V9.249a8.9,8.9,0,0,1,2.711-6.541A8.912,8.912,0,0,1,348.589,0V3.962a5.093,5.093,0,0,0-3.74,1.548,5.1,5.1,0,0,0-1.548,3.74h5.288v3.967Z" transform="translate(-236.336 0.004)"/><path class="a" d="M393.25,46.255h-3.964V44.615a9.3,9.3,0,0,1-11.838-1.068,9.255,9.255,0,0,1,0-13.088,9.264,9.264,0,0,1,13.088,0A8.921,8.921,0,0,1,393.244,37Zm-5.512-5.512a5.288,5.288,0,1,0-5.763,1.147A5.291,5.291,0,0,0,387.738,40.742Z" transform="translate(-260.991 -19.327)"/><path class="a" d="M448.637,14.68v3.967H444.67V14.68Zm0,5.288V37.15H444.67V19.968Z" transform="translate(-309.697 -10.223)"/></g><rect class="b" width="139" height="74"/></svg>