<svg xmlns="http://www.w3.org/2000/svg" width="117" height="74" viewBox="0 0 117 74"><defs><style>.a{fill:none;}.b{fill:#fff;}</style></defs><rect class="a" width="117" height="74"/><path class="b" d="M185.088,36.887a1.449,1.449,0,0,0-1.254,2.172h0l9.687,16.779a1.45,1.45,0,0,0,2.509,0l9.687-16.779a1.449,1.449,0,0,0-1.254-2.174Zm9.687,22.333a4.064,4.064,0,0,1-3.555-2.052l-9.687-16.779a4.107,4.107,0,0,1,3.555-6.16h19.375a4.107,4.107,0,0,1,3.555,6.161l-9.687,16.778a4.064,4.064,0,0,1-3.556,2.052" transform="translate(-167.097 -7.217)"/><path class="b" d="M151.792,39.033l9.688,16.778a1.449,1.449,0,0,0,2.508,0l9.688-16.779a1.449,1.449,0,0,0-1.255-2.174H153.047a1.449,1.449,0,0,0-1.254,2.174Zm10.942,20.159a4.061,4.061,0,0,1-3.555-2.054l-9.687-16.777a4.106,4.106,0,0,1,3.555-6.159h19.374a4.107,4.107,0,0,1,3.557,6.158L166.29,57.139a4.062,4.062,0,0,1-3.555,2.053" transform="translate(-148.935 -7.202)"/><path class="b" d="M269.648,66.959l-4.463-16.03c-.075-.224,1.115-1.08,2.195-1.08.781,0,1.637.447,1.933,1.973l2.79,12.533,3.422-10.823c.261-.893.893-1.3,2.27-1.3,1.338,0,1.97.409,2.231,1.3l3.31,10.749,2.752-12.459c.26-1.525,1.154-1.973,1.9-1.973a2.72,2.72,0,0,1,2.12,1.08l-4.426,16.03c-.222.893-.893,1.189-2.231,1.189-1.525,0-1.935-.3-2.27-1.3l-3.458-10.825-3.57,10.825c-.336.967-.782,1.3-2.233,1.3-1.339,0-2.008-.3-2.269-1.189" transform="translate(-214.827 -16.071)"/><path class="b" d="M326.616,42.764c0-1.338.706-1.785,1.674-1.785h.372c.966,0,1.637.409,1.637,1.785V57.457c0,1.339-.671,1.748-1.637,1.748h-.372c-.968,0-1.674-.409-1.674-1.748Zm1.935-8.563a1.975,1.975,0,0,1,2.156,2.157,1.96,1.96,0,0,1-2.194,2.12,2.14,2.14,0,1,1,.038-4.278" transform="translate(-249.481 -7.201)"/><path class="b" d="M340.33,66.459c0-.782.3-1.154,1.04-2.009l9.373-11.233H342c-1.115,0-1.6-.409-1.6-1.339v-.26c0-.892.484-1.339,1.6-1.339h11.94c1.154,0,1.525.632,1.525,1.377v.222c0,.707-.26,1.079-1,1.935L344.9,65.194h9.261c1.116,0,1.6.445,1.6,1.376v.223c0,.93-.483,1.377-1.6,1.377H341.854a1.341,1.341,0,0,1-1.524-1.414Z" transform="translate(-257.423 -16.314)"/><path class="b" d="M386.148,52.038a5.7,5.7,0,0,0-5.653,5.1h10.711c-.185-3.087-2.082-5.1-5.057-5.1m.036-2.79c5.17,0,8.592,3.645,8.592,9v.3c0,.782-.261,1.079-1.115,1.079H380.456a4.08,4.08,0,0,0,.076.669,5.809,5.809,0,0,0,6.024,4.872c3.126,0,4.687-1.377,5.618-2.975.074-.074,1.933.261,1.933,1.822a3.581,3.581,0,0,1-1.972,2.605,10.6,10.6,0,0,1-5.653,1.449c-5.653,0-9.448-3.756-9.448-9.335,0-5.431,3.87-9.485,9.15-9.485" transform="translate(-278.228 -15.73)"/></svg>