<svg xmlns="http://www.w3.org/2000/svg" width="121" height="74" viewBox="0 0 121 74"><defs><style>.a{fill:none;}.b{fill:#fff;}</style></defs><rect class="a" width="121" height="74" transform="translate(0)"/><path class="b" d="M161.262,43.561h0a8.334,8.334,0,1,0-11.789,0l.175.175,5.72-5.713,5.72,5.713Zm-9.627,2.159,3.733,3.727L159.1,45.72l-3.733-3.729ZM149.648,47.7l-.175.175a8.334,8.334,0,1,0,11.789,0l-.174-.175-5.72,5.712Zm5.72,17.187a11.126,11.126,0,0,1-7.878-19l.172-.172-.172-.172a11.141,11.141,0,1,1,15.755,0l-.173.172.173.172a11.128,11.128,0,0,1-7.877,19" transform="translate(-144.226 -5.548)"/><path class="b" d="M235.653,51.186a5.929,5.929,0,0,0-5.877,5.3H240.91c-.193-3.21-2.165-5.3-5.257-5.3m.038-2.9c5.373,0,8.931,3.79,8.931,9.356v.309c0,.812-.271,1.121-1.16,1.121H229.736a4.3,4.3,0,0,0,.078.695,6.041,6.041,0,0,0,6.264,5.066c3.247,0,4.871-1.43,5.837-3.093.078-.077,2.01.271,2.01,1.9a3.722,3.722,0,0,1-2.048,2.706A11,11,0,0,1,236,67.849c-5.877,0-9.82-3.9-9.82-9.7,0-5.644,4.021-9.858,9.511-9.858" transform="translate(-190.68 -17.87)"/><path class="b" d="M274.891,56.527v-24.3a2.036,2.036,0,0,1,1.392-.411c1.2,0,2.436.6,2.436,3.171V56.527c0,1.342-.7,1.753-1.7,1.753h-.386a1.533,1.533,0,0,1-1.741-1.753" transform="translate(-218.291 -8.533)"/><path class="b" d="M299.336,51.186a5.929,5.929,0,0,0-5.877,5.3h11.134c-.192-3.21-2.165-5.3-5.257-5.3m.039-2.9c5.374,0,8.932,3.79,8.932,9.356v.309c0,.812-.271,1.121-1.16,1.121H293.42a4.254,4.254,0,0,0,.078.695,6.04,6.04,0,0,0,6.264,5.066c3.247,0,4.871-1.43,5.838-3.093.077-.077,2.009.271,2.009,1.9a3.72,3.72,0,0,1-2.048,2.706,11.008,11.008,0,0,1-5.878,1.508c-5.877,0-9.82-3.9-9.82-9.7,0-5.644,4.021-9.858,9.511-9.858" transform="translate(-226.778 -17.87)"/><path class="b" d="M332.67,50.032c-.077-.231.773-1.12,2.01-1.12,1.082,0,1.778.463,2.436,2.281L341.794,64.3l4.832-13.105c.658-1.818,1.391-2.281,2.359-2.281,1.2,0,2.049.927,1.972,1.12l-6.766,16.7c-.35.851-1.123,1.2-2.359,1.2-1.314,0-1.972-.269-2.32-1.12Z" transform="translate(-251.038 -18.225)"/><path class="b" d="M392.442,39.2c0-2.541-1.894-4.287-5.257-4.287-3.481,0-5.259,1.667-5.259,4.287,0,2.46,1.972,4.128,5.3,4.128s5.22-1.548,5.22-4.128m.657,11.631c0-2.739-2.2-4.566-5.914-4.566-3.751,0-5.916,1.786-5.916,4.566,0,2.619,2.2,4.485,5.954,4.485,3.867,0,5.877-1.707,5.877-4.485m-15.735.317c0-2.976,1.741-5.279,5.064-6.39a5.766,5.766,0,0,1-4.33-5.8c0-4.247,3.6-7.183,9.124-7.183,5.606,0,9.009,2.778,9.009,7.105a5.89,5.89,0,0,1-4.292,5.834c3.4,1.072,5.065,3.374,5.065,6.431,0,4.287-3.9,7.3-9.819,7.3-6.109,0-9.821-2.858-9.821-7.3" transform="translate(-276.375 -8.514)"/></svg>