<svg xmlns="http://www.w3.org/2000/svg" width="139.377" height="74" viewBox="0 0 139.377 74"><defs><style>.a{fill:#fff;}.b{fill:none;}</style></defs><path class="a" d="M127.04,52.63a1.714,1.714,0,0,0-1.712,1.712v9.629a1.714,1.714,0,0,0,1.712,1.711h9.628a1.714,1.714,0,0,0,1.712-1.711V54.342a1.714,1.714,0,0,0-1.712-1.712Zm9.628,15.795H127.04a4.459,4.459,0,0,1-4.454-4.454V54.342a4.459,4.459,0,0,1,4.454-4.454h9.628a4.459,4.459,0,0,1,4.454,4.454v9.629a4.459,4.459,0,0,1-4.454,4.454" transform="translate(-122.586 -14.642)"/><path class="a" d="M145.566,15.124a1.714,1.714,0,0,0-1.713,1.712V42.711a1.714,1.714,0,0,0,1.713,1.713h9.628a1.714,1.714,0,0,0,1.712-1.713V16.836a1.714,1.714,0,0,0-1.712-1.712Zm9.628,32.042h-9.628a4.46,4.46,0,0,1-4.455-4.455V16.836a4.459,4.459,0,0,1,4.455-4.454h9.628a4.459,4.459,0,0,1,4.454,4.454V42.711a4.459,4.459,0,0,1-4.454,4.455" transform="translate(-133.086 6.618)"/><path class="a" d="M223.343,52.152a5.783,5.783,0,0,0-5.733,5.166h10.86c-.188-3.129-2.112-5.166-5.127-5.166m.036-2.828c5.242,0,8.711,3.7,8.711,9.127v.3c0,.793-.263,1.095-1.131,1.095H217.573a4.148,4.148,0,0,0,.075.678,5.89,5.89,0,0,0,6.108,4.939c3.168,0,4.751-1.394,5.694-3.016.076-.075,1.961.263,1.961,1.847a3.634,3.634,0,0,1-2,2.64,10.738,10.738,0,0,1-5.731,1.47c-5.731,0-9.578-3.808-9.578-9.464,0-5.506,3.921-9.617,9.276-9.617" transform="translate(-174.46 -14.322)"/><path class="a" d="M255.852,51.028c-.076-.227.754-1.095,1.96-1.095,1.057,0,1.736.453,2.376,2.226l4.563,12.782,4.714-12.782c.641-1.773,1.357-2.226,2.3-2.226,1.167,0,2,.9,1.921,1.095l-6.6,16.288c-.338.831-1.092,1.17-2.3,1.17-1.283,0-1.923-.263-2.264-1.092Z" transform="translate(-198.122 -14.667)"/><path class="a" d="M306.236,52.152a5.783,5.783,0,0,0-5.733,5.166h10.86c-.188-3.129-2.112-5.166-5.127-5.166m.036-2.828c5.242,0,8.711,3.7,8.711,9.127v.3c0,.793-.263,1.095-1.131,1.095H300.466a4.2,4.2,0,0,0,.075.678,5.891,5.891,0,0,0,6.109,4.939c3.168,0,4.751-1.394,5.694-3.016.076-.075,1.961.263,1.961,1.847a3.634,3.634,0,0,1-2,2.64,10.741,10.741,0,0,1-5.731,1.47C300.843,68.4,297,64.6,297,58.941c0-5.506,3.922-9.617,9.276-9.617" transform="translate(-221.446 -14.322)"/><path class="a" d="M355.607,51.738a1.856,1.856,0,0,1-1.131,1.924,3.516,3.516,0,0,0-2.3-.793c-2.941,0-4.11,2.867-4.11,7.052v6.373c0,1.357-.716,1.772-1.659,1.772h-.415c-.98,0-1.659-.415-1.659-1.772V50a1.849,1.849,0,0,1,1.357-.415,2.133,2.133,0,0,1,2.188,1.811,6.707,6.707,0,0,1,.151,1.357,4.592,4.592,0,0,1,4.6-3.431c1.885,0,2.979.9,2.979,2.412" transform="translate(-248.278 -14.323)"/><path class="a" d="M375.278,57.031V47.454h-1.319c-1.17,0-1.62-.489-1.62-1.4V45.8c0-.9.451-1.4,1.62-1.4h1.319V41.609c0-1.282.642-1.772,1.659-1.772h.377c.982,0,1.622.378,1.622,1.772V44.4h4.11c1.17,0,1.584.452,1.584,1.357v.265c0,.943-.453,1.433-1.621,1.433H378.9v9.163c0,2.262.64,3.355,2.413,3.355a3.071,3.071,0,0,0,2.565-1.283c.113-.112,1.055.415,1.055,1.585a2.235,2.235,0,0,1-.79,1.659,5.1,5.1,0,0,1-3.432,1.094c-3.733,0-5.431-2.074-5.431-6" transform="translate(-264.153 -8.944)"/><path class="a" d="M408.121,74.6l3.017-7.353a1.567,1.567,0,0,1-1.584-1.056l-6.485-15.158c-.076-.227.754-1.093,1.96-1.093,1.057,0,1.773.489,2.376,2.112l4.9,12.519,4.337-12.444c.528-1.659,1.357-2.187,2.338-2.187,1.018,0,2.037.83,1.961,1.017l-8.56,22.587c-.6,1.623-1.433,2.074-2.3,2.074-1.056,0-2.036-.829-1.961-1.018" transform="translate(-281.569 -14.668)"/><rect class="b" width="139" height="74"/></svg>